<?xml version="1.0" encoding="utf-8"?>
<!-- Generator: Adobe Illustrator 27.1.0, SVG Export Plug-In . SVG Version: 6.00 Build 0)  -->
<svg version="1.1" id="Capa_1" xmlns="http://www.w3.org/2000/svg" xmlns:xlink="http://www.w3.org/1999/xlink" x="0px" y="0px"
	 viewBox="0 0 261.6 641.8" style="enable-background:new 0 0 261.6 641.8;" xml:space="preserve">
<style type="text/css">
	.st0{fill:#5D3966;stroke:#000000;stroke-miterlimit:10;}
	.st1{fill:#4F3A56;stroke:#000000;stroke-miterlimit:10;}
	.st2{fill:#3C313F;stroke:#000000;stroke-miterlimit:10;}
	.st3{stroke:#000000;stroke-miterlimit:10;}
	.st4{fill:#262626;stroke:#000000;stroke-miterlimit:10;}
</style>
<g>
	<path class="st0" d="M261.1,129.4L261.1,129.4c0-71.2-47.9-128.9-107-128.9h-46.6c-59.1,0-107,57.7-107,128.9v0c0,2.8,1.9,5,4.2,5
		h0c2.3,0,4.2,2.3,4.2,5v311c0,2.8-1.9,5-4.2,5h0c-2.3,0-4.2,2.3-4.2,5V583c0,32.2,21.7,58.3,48.4,58.3h163.8
		c26.7,0,48.4-26.1,48.4-58.3l0-122.4c0-2.8-1.9-5-4.2-5l0,0c-2.3,0-4.2-2.3-4.2-5v-311c0-2.8,1.9-5,4.2-5l0,0
		C259.3,134.4,261.1,132.2,261.1,129.4z"/>
	<g>
		<path class="st1" d="M44.7,122.9c11.6-60,37.6-98.7,86.1-104.4"/>
		<path class="st1" d="M216.9,122.9c-11.6-60-37.6-98.7-86.1-104.4"/>
	</g>
	<g>
		<path class="st1" d="M111.4,578.7c-33.4-82.6-55-188-72.6-301.3"/>
		<path class="st1" d="M150.3,578.7c33.4-82.6,55-188,72.6-301.3"/>
	</g>
	<g>
		<path class="st2" d="M15.7,203c4.6,111.3,9.9,205.5,23.1,108"/>
		<path class="st2" d="M245.9,203c-4.6,111.3-9.9,205.5-23.1,108"/>
	</g>
	<g>
		<path class="st3" d="M219,210.4c0,26-13.9,135.8-35.8,217.6l-52.4-115L81.2,428c-23.1-81.8-38.5-191.6-38.5-217.6
			c0-42.7,41.5-118.8,90.2-118.8C181.6,91.6,219,167.7,219,210.4z"/>
		<path class="st4" d="M183.2,428c-14,52.5-31.3,93.4-50.3,93.4s-37-41-51.7-93.4l49.7-115L183.2,428z"/>
	</g>
	<g>
		<path class="st1" d="M182.2,621.9c-4.9-90.4,14.1-164.2,57-221.4"/>
		<path class="st1" d="M79.4,621.9c4.9-90.4-14.1-164.2-57-221.4"/>
	</g>
</g>
</svg>
