<?xml version="1.0" encoding="utf-8"?>
<!-- Generator: Adobe Illustrator 27.1.0, SVG Export Plug-In . SVG Version: 6.00 Build 0)  -->
<svg version="1.1" id="Capa_1" xmlns="http://www.w3.org/2000/svg" xmlns:xlink="http://www.w3.org/1999/xlink" x="0px" y="0px"
	 viewBox="0 0 510.24 680.31" style="enable-background:new 0 0 510.24 680.31;" xml:space="preserve">
<style type="text/css">
	.st0{fill:#1A1A1A;}
	.st1{fill:#FFFFFF;stroke:#000000;stroke-width:2.1488;stroke-miterlimit:10;}
	.st2{fill:#1A1A1A;stroke:#000000;stroke-width:2.1488;stroke-miterlimit:10;}
	.st3{fill:none;stroke:#000000;stroke-width:2.1488;stroke-miterlimit:10;}
	.st4{fill:#333333;stroke:#000000;stroke-width:2.1488;stroke-miterlimit:10;}
	.st5{fill:#CCCCCC;stroke:#000000;stroke-width:2.1488;stroke-miterlimit:10;}
	.st6{stroke:#000000;stroke-width:2.1488;stroke-miterlimit:10;}
	.st7{fill:#4D4D4D;stroke:#000000;stroke-width:2.1488;stroke-miterlimit:10;}
</style>
<g>
	<g>
		<path d="M187.3,319.89c-4.07,0-7.55-2.91-8.28-6.92l-20.06-111.36c0.03-20.09,8.23-37.59,23.73-50.64
			c13.82-11.63,33.46-19.6,55.3-22.44c5.98-0.78,12.1-1.18,18.2-1.18c6.1,0,12.22,0.4,18.2,1.18c21.84,2.83,41.49,10.8,55.31,22.44
			c15.5,13.04,23.7,30.56,23.73,50.64l-20.06,111.36c-0.72,4.01-4.21,6.92-8.28,6.92H187.3z"/>
		<path d="M256.19,128.43c6.05,0,12.13,0.39,18.06,1.17c21.64,2.81,41.09,10.69,54.76,22.19c15.22,12.81,23.29,30.01,23.35,49.73
			L332.3,312.78c-0.63,3.5-3.67,6.03-7.22,6.03H187.3c-3.55,0-6.59-2.54-7.22-6.03l-20.05-111.27c0.05-19.72,8.12-36.91,23.34-49.72
			c13.67-11.5,33.11-19.39,54.75-22.2C244.06,128.82,250.13,128.43,256.19,128.43 M256.19,126.28c-6.14,0-12.29,0.39-18.33,1.18
			c-42.33,5.5-79.97,30.24-79.97,74.24l20.08,111.46c0.82,4.51,4.75,7.8,9.34,7.8h137.78c4.59,0,8.52-3.29,9.34-7.8L354.5,201.7
			c0-44-37.64-68.75-79.98-74.24C268.47,126.67,262.33,126.28,256.19,126.28L256.19,126.28z"/>
	</g>
	<g>
		<path class="st0" d="M323.34,408.31c-1.63-1.71-3.28-3.42-4.89-5.09c-17.81-18.43-36.22-37.48-44.18-81.19h49.07V408.31z
			 M189.04,322.04h49.06c-7.97,43.73-26.39,62.78-44.2,81.22c-1.6,1.66-3.24,3.35-4.86,5.05V322.04z"/>
		<path d="M322.27,323.11v82.52c-1.02-1.06-2.04-2.11-3.04-3.15c-17.53-18.13-35.64-36.88-43.67-79.37H322.27 M236.81,323.11
			c-8.03,42.52-26.15,61.26-43.68,79.39c-0.99,1.03-2,2.07-3.01,3.12v-82.51H236.81 M324.42,320.96H187.97v90.05
			c19.53-20.86,42.36-39.28,51.32-89.51h33.79c8.96,50.24,31.8,68.64,51.33,89.52V320.96L324.42,320.96z"/>
	</g>
	<path class="st1" d="M310.54,609.44c-5.58,1.15-11.14,2.11-16.72,2.88C299.38,611.53,304.96,610.57,310.54,609.44z"/>
	<path class="st1" d="M330.74,604.57l-0.01,0.03c-5.34,1.48-10.68,2.8-16.02,3.95C320.05,607.38,325.41,606.05,330.74,604.57z"/>
	<g>
		<path class="st2" d="M354.26,467.62H158.13c4.85-27.15,16.59-42.45,29.85-56.61c19.53-20.86,42.36-39.28,51.32-89.51h33.79
			c8.96,50.24,31.8,68.64,51.33,89.52c13.17,14.06,24.83,29.26,29.74,56.06C354.19,467.25,354.22,467.43,354.26,467.62z"/>
	</g>
	<path class="st3" d="M293.82,612.32c5.57-0.78,11.14-1.75,16.72-2.88C304.96,610.59,299.39,611.54,293.82,612.32z"/>
	<path class="st3" d="M314.71,608.56c5.34-1.17,10.69-2.5,16.03-3.99l-0.01,0.03C325.39,606.08,320.05,607.41,314.71,608.56z"/>
	<path class="st3" d="M354.25,467.62H158.82l-0.1-0.54h195.43C354.19,467.25,354.22,467.43,354.25,467.62z"/>
	<polyline class="st3" points="158.72,467.08 192.1,467.08 320.28,467.08 354.16,467.08 	"/>
	<g>
		<path class="st3" d="M274.83,377.37c16.12,33.31,43.21,62.52,45.45,89.71"/>
		<path class="st3" d="M237.55,377.37c-16.12,33.31-43.21,62.52-45.45,89.71"/>
	</g>
	<g>
		<path class="st1" d="M256.19,55.05c-1.03,0-2.07,0.02-3.11,0.08c0-0.02,0.01-0.05,0.02-0.08H256.19z"/>
		<path class="st1" d="M259.3,55.12c-1.03-0.05-2.07-0.08-3.11-0.08h3.08C259.29,55.07,259.3,55.1,259.3,55.12z"/>
		<path class="st1" d="M274.52,127.46c-0.01,0.14-0.01,0.27-0.02,0.41h-36.63c-0.01-0.13-0.01-0.27-0.02-0.41
			C249.95,125.88,262.42,125.88,274.52,127.46z"/>
	</g>
	<path class="st4" d="M370.84,175.62c0.1-0.38,0.24-0.73,0.39-1.07c0.09-0.17,0.16-0.33,0.26-0.49c0.09-0.16,0.19-0.32,0.3-0.47
		c0.1-0.15,0.2-0.29,0.32-0.43c0-0.01,0.01-0.02,0.01-0.02c0.11-0.14,0.23-0.27,0.35-0.4c0.12-0.12,0.24-0.25,0.37-0.35
		c0.15-0.14,0.31-0.27,0.48-0.4c0.13-0.11,0.27-0.19,0.41-0.28c0.15-0.11,0.31-0.2,0.47-0.28c0.16-0.1,0.32-0.17,0.48-0.24
		c0.14-0.06,0.28-0.12,0.43-0.16c0.19-0.06,0.4-0.13,0.6-0.18c0.12-0.04,0.24-0.06,0.37-0.08c0.24-0.04,0.47-0.09,0.71-0.11
		c0.01,0,0.01,0,0.01,0c0.77-0.05,1.56,0.01,2.34,0.23l10.81,2.94V96.62c0-17.87-8.06-34.67-21.68-45.22
		c-17.19-13.31-34.38-23.55-51.57-30.73c-4.7-1.96-9.38-3.7-14.07-5.19h-0.01c-30.95-9.94-61.9-9.94-92.85-0.01
		c-4.7,1.5-9.4,3.23-14.1,5.2c-17.19,7.18-34.38,17.42-51.57,30.73c-13.61,10.55-21.67,27.35-21.67,45.22v77.21l10.81-2.94
		c0.24-0.06,0.47-0.12,0.71-0.15c0.18-0.03,0.37-0.05,0.55-0.08c0,0,0,0,0.01,0c0.17-0.01,0.34-0.02,0.52-0.02
		c1.12,0,2.19,0.28,3.15,0.78c0.32,0.17,0.63,0.37,0.91,0.58c0.15,0.12,0.29,0.23,0.43,0.34c0.14,0.12,0.27,0.26,0.39,0.39
		c0.76,0.78,1.33,1.76,1.64,2.89l2.13,7.79c0.34,1.26-0.4,2.55-1.65,2.89l-19.59,5.34v32.22c0,23.63,1.99,47.21,5.49,70.58
		c6.56,43.82,6.56,87.66,0,131.48c-3.5,23.37-5.49,46.95-5.49,70.58v85.01c3.41,1.7,6.8,3.34,10.21,4.91
		c0.17,0.08,0.34,0.16,0.52,0.24c0.95,0.44,1.89,0.87,2.84,1.29c1.13,0.52,2.27,1.01,3.4,1.5c0.84,0.37,1.68,0.73,2.51,1.09
		c1.59,0.68,3.17,1.34,4.75,1.99c0.68,0.28,1.35,0.56,2.03,0.83c0.87,0.35,1.76,0.7,2.64,1.05c0.2,0.08,0.4,0.16,0.6,0.24
		c0.68,0.27,1.36,0.53,2.05,0.78c0.11,0.04,0.2,0.08,0.31,0.12c0.67,0.26,1.33,0.52,2,0.75c0.12,0.05,0.25,0.1,0.37,0.14
		c0.92,0.34,1.84,0.69,2.76,1.01c0.92,0.34,1.85,0.67,2.77,0.99c0.95,0.34,1.88,0.67,2.83,0.99c0.76,0.26,1.53,0.52,2.29,0.76
		c0.86,0.29,1.73,0.58,2.59,0.85c1.13,0.37,2.26,0.73,3.4,1.07c2.34,0.73,4.7,1.43,7.04,2.1c0.3,0.09,0.6,0.17,0.9,0.25
		c0.84,0.24,1.68,0.47,2.52,0.7c1.26,0.34,2.51,0.68,3.77,1c1.15,0.29,2.29,0.58,3.44,0.86c0.89,0.21,1.77,0.43,2.66,0.63
		c0.99,0.24,1.99,0.46,2.98,0.68c0.21,0.05,0.42,0.1,0.63,0.14c0.71,0.16,1.42,0.32,2.13,0.46c0.81,0.17,1.61,0.34,2.42,0.5
		c0.57,0.12,1.14,0.24,1.71,0.34c0.56,0.11,1.13,0.21,1.7,0.32c0.71,0.14,1.42,0.28,2.13,0.4c1.09,0.2,2.17,0.4,3.27,0.58
		c0.78,0.14,1.58,0.27,2.37,0.39c0.21,0.04,0.44,0.08,0.66,0.11c0.32,0.06,0.64,0.11,0.97,0.16c0.92,0.14,1.86,0.28,2.78,0.41
		c1.13,0.17,2.26,0.32,3.38,0.47c1.29,0.17,2.59,0.33,3.88,0.48c0.97,0.12,1.93,0.23,2.9,0.32c1.14,0.13,2.27,0.24,3.4,0.34
		c-16.17-1.56-32.32-4.6-48.44-9.14l-23.65-136.99h-0.7c4.85-27.15,16.59-42.45,29.85-56.61v-90.05h-0.67
		c-4.59,0-8.52-3.29-9.34-7.8L157.88,201.7c0-44,37.64-68.74,79.97-74.24c-0.87-18.61,6.23-44.59,15.23-72.34
		c0-0.02,0.01-0.05,0.02-0.08h6.17c0.01,0.02,0.02,0.05,0.02,0.08c9,27.75,16.11,53.72,15.22,72.34
		c42.34,5.49,79.98,30.24,79.98,74.24l-20.08,111.46c-0.82,4.51-4.75,7.8-9.34,7.8h-0.67v90.06c13.17,14.06,24.83,29.26,29.74,56.06
		h0.32l-23.73,137.49c19.74-5.51,39.47-13.19,59.21-23.07V496.5c0-23.63-2-47.21-5.5-70.58c-6.56-43.82-6.56-87.66,0-131.48
		c3.5-23.37,5.5-46.95,5.5-70.58v-32.21l-19.6-5.35c-1.25-0.34-1.99-1.63-1.64-2.89L370.84,175.62z M127.87,121.66V85.6
		c0-14.82,10.42-27.59,24.95-30.56c-6.06,25.82-8.89,47.28-7.76,63.39L127.87,121.66z M384.52,85.6v36.06l-17.19-3.22
		c1.13-16.11-1.7-37.57-7.76-63.39C374.08,58.01,384.52,70.79,384.52,85.6z"/>
	<path class="st5" d="M384.52,85.6v36.06l-17.19-3.22c1.13-16.11-1.7-37.57-7.76-63.39C374.09,58.01,384.52,70.79,384.52,85.6z"/>
	<path class="st5" d="M145.06,118.44l-17.19,3.22V85.6c0-14.82,10.42-27.59,24.95-30.56C146.75,80.87,143.93,102.33,145.06,118.44z"
		/>
	<path class="st3" d="M341.73,105.54c-27.48-32.45-54.96-49.25-82.43-50.42"/>
	<path class="st3" d="M253.09,55.12c-27.48,1.17-54.96,17.97-82.43,50.42"/>
	<g>
		<path class="st3" d="M209.83,15.36c-31.45,51.34-51.36,106.7-55.54,167.54l3.35,18.8"/>
		<path class="st3" d="M302.63,15.48c31.42,51.31,51.29,106.62,55.47,167.42l-3.35,18.8"/>
		<path class="st3" d="M302.62,15.48c-0.02-0.04-0.04-0.08-0.06-0.12"/>
	</g>
	<g>
		<g>
			<g>
				<polyline class="st3" points="195.55,27.11 167.62,82.98 148.28,98.02 148.28,131.31 152.81,231.36 				"/>
			</g>
		</g>
		<g>
			<g>
				<polyline class="st3" points="316.83,27.11 344.76,82.98 364.1,98.02 364.1,131.31 359.57,231.36 				"/>
			</g>
		</g>
	</g>
	<path class="st6" d="M389.95,581.5v38.68c-89.17,37.65-178.35,37.65-267.52,0V581.5c3.41,1.7,6.8,3.34,10.21,4.91
		c0.17,0.08,0.34,0.16,0.52,0.24c0.95,0.44,1.89,0.87,2.84,1.29c1.13,0.52,2.27,1.01,3.4,1.5c0.84,0.37,1.68,0.73,2.51,1.09
		c1.59,0.68,3.17,1.34,4.75,1.99c0.68,0.28,1.35,0.56,2.03,0.83c0.87,0.35,1.76,0.7,2.64,1.05c0.2,0.08,0.4,0.16,0.6,0.24
		c0.68,0.27,1.36,0.53,2.05,0.78c0.11,0.04,0.2,0.08,0.31,0.12c0.67,0.26,1.33,0.52,2,0.75c0.12,0.05,0.25,0.1,0.37,0.14
		c0.92,0.34,1.84,0.69,2.76,1.01c0.92,0.34,1.85,0.67,2.77,0.99c0.95,0.34,1.88,0.67,2.83,0.99c0.76,0.26,1.53,0.52,2.29,0.76
		c0.86,0.29,1.73,0.58,2.59,0.85c1.13,0.37,2.26,0.73,3.4,1.07c2.34,0.73,4.7,1.43,7.04,2.1c0.3,0.09,0.6,0.17,0.9,0.25
		c0.84,0.24,1.68,0.47,2.52,0.7c1.26,0.34,2.51,0.68,3.77,1c1.15,0.29,2.29,0.58,3.44,0.86c0.89,0.21,1.77,0.43,2.66,0.63
		c0.99,0.24,1.99,0.46,2.98,0.68c0.21,0.05,0.42,0.1,0.63,0.14c0.71,0.16,1.42,0.32,2.13,0.46c0.81,0.17,1.61,0.34,2.42,0.5
		c0.57,0.12,1.14,0.24,1.71,0.34c0.56,0.11,1.13,0.21,1.7,0.32c0.71,0.14,1.42,0.28,2.13,0.4c1.09,0.2,2.17,0.4,3.27,0.58
		c0.78,0.14,1.58,0.27,2.37,0.39c0.21,0.04,0.44,0.08,0.66,0.11c0.32,0.06,0.64,0.11,0.97,0.16c0.92,0.14,1.86,0.28,2.78,0.41
		c1.13,0.17,2.26,0.32,3.38,0.47c1.29,0.17,2.59,0.33,3.88,0.48c0.97,0.12,1.93,0.23,2.9,0.32c1.14,0.13,2.27,0.24,3.4,0.34
		c2.31,0.23,4.62,0.41,6.93,0.57c3.07,0.23,6.16,0.39,9.24,0.48c1.55,0.05,3.08,0.1,4.63,0.12c1.49,0.03,2.99,0.04,4.48,0.04
		c2.92,0,5.84-0.04,8.76-0.14c0.76-0.03,1.53-0.05,2.29-0.1c0.72-0.02,1.43-0.05,2.14-0.09c1.18-0.05,2.35-0.12,3.53-0.2
		c1.4-0.08,2.78-0.17,4.18-0.29c1.24-0.09,2.48-0.19,3.72-0.31c0.47-0.04,0.95-0.09,1.42-0.14c1.02-0.09,2.04-0.19,3.06-0.31
		c0.17-0.01,0.34-0.03,0.52-0.06c1.28-0.13,2.56-0.28,3.82-0.45c1.4-0.16,2.79-0.34,4.19-0.55c5.58-0.77,11.14-1.73,16.72-2.88
		c1.4-0.27,2.79-0.56,4.18-0.88c5.34-1.15,10.68-2.47,16.02-3.95l0.01-0.03C350.48,599.06,370.22,591.38,389.95,581.5z"/>
	<path class="st2" d="M274.52,127.46c-12.1-1.58-24.57-1.58-36.67,0c-0.87-18.61,6.23-44.59,15.23-72.34
		c1.03-0.05,2.07-0.08,3.11-0.08c1.03,0,2.07,0.02,3.11,0.08C268.3,82.87,275.4,108.84,274.52,127.46z"/>
	<path class="st3" d="M379.15,170.88c-3.61-0.99-7.33,1.14-8.31,4.74l-2.13,7.79c-0.34,1.26,0.4,2.55,1.64,2.89l19.6,5.35v-17.82
		L379.15,170.88z M324.42,411.02v-90.06h0.67c4.59,0,8.52-3.29,9.34-7.8L354.5,201.7c0-44-37.64-68.75-79.98-74.24
		c-12.1-1.58-24.57-1.58-36.67,0c-42.33,5.5-79.97,30.24-79.97,74.24l20.08,111.46c0.82,4.51,4.75,7.8,9.34,7.8h0.67v90.05
		c-13.26,14.16-25,29.46-29.85,56.61h196.13c-0.03-0.18-0.06-0.37-0.1-0.54C349.24,440.27,337.59,425.08,324.42,411.02z
		 M314.71,608.56c5.34-1.15,10.68-2.47,16.02-3.95l0.01-0.03C325.4,606.05,320.05,607.38,314.71,608.56z M293.82,612.32
		c5.58-0.77,11.14-1.73,16.72-2.88C304.96,610.57,299.38,611.53,293.82,612.32z M237.84,614.31c3.07,0.23,6.16,0.39,9.24,0.48
		C244,614.69,240.92,614.53,237.84,614.31z M230.91,613.75c2.31,0.23,4.62,0.41,6.93,0.57
		C235.53,614.15,233.22,613.96,230.91,613.75z M259.27,55.05h-3.08c1.03,0,2.07,0.02,3.11,0.08
		C259.3,55.1,259.29,55.07,259.27,55.05z M253.11,55.05c-0.01,0.02-0.02,0.05-0.02,0.08c1.03-0.05,2.07-0.08,3.11-0.08H253.11z
		 M143.67,183.41l-2.13-7.79c-0.99-3.6-4.71-5.73-8.31-4.74l-10.81,2.94v17.81l19.59-5.34
		C143.27,185.95,144.01,184.66,143.67,183.41z"/>
	<path class="st6" d="M354.16,467.08c0.03,0.17,0.06,0.35,0.1,0.54H158.82l23.65,136.99c16.13,4.54,32.27,7.59,48.44,9.14
		c2.31,0.21,4.62,0.41,6.93,0.57c3.08,0.21,6.16,0.38,9.24,0.48c1.55,0.05,3.08,0.1,4.63,0.12c1.49,0.03,2.99,0.04,4.48,0.04
		c2.92,0,5.84-0.04,8.76-0.14c0.76-0.03,1.53-0.05,2.29-0.1c0.72-0.02,1.43-0.05,2.14-0.09c1.18-0.06,2.36-0.13,3.53-0.2
		c1.4-0.09,2.79-0.18,4.18-0.29c1.25-0.1,2.48-0.2,3.72-0.31c0.47-0.04,0.95-0.09,1.42-0.14c1.02-0.1,2.04-0.2,3.06-0.31
		c0.17-0.01,0.34-0.03,0.52-0.06c1.28-0.14,2.56-0.29,3.82-0.45c1.4-0.17,2.79-0.35,4.19-0.55c5.57-0.78,11.14-1.75,16.72-2.88
		c1.4-0.28,2.78-0.58,4.18-0.88c5.34-1.17,10.69-2.5,16.03-3.99l23.73-137.49H354.16z M212.01,488.03
		c13.35,0,24.17,10.82,24.17,24.17s-10.82,24.17-24.17,24.17s-24.17-10.82-24.17-24.17S198.66,488.03,212.01,488.03z M216.58,597.35
		c-12.01,0-21.76-9.74-21.76-21.76c0-12.01,9.74-21.76,21.76-21.76s21.76,9.74,21.76,21.76
		C238.34,587.61,228.59,597.35,216.58,597.35z M298.77,597.35c-12.01,0-21.76-9.74-21.76-21.76c0-12.01,9.74-21.76,21.76-21.76
		s21.76,9.74,21.76,21.76C320.53,587.61,310.78,597.35,298.77,597.35z M303.34,536.38c-13.35,0-24.17-10.82-24.17-24.17
		s10.82-24.17,24.17-24.17c13.35,0,24.17,10.82,24.17,24.17S316.69,536.38,303.34,536.38z"/>
	<path class="st2" d="M389.95,620.18v7.88c0,8.82-5.33,16.81-13.52,20.1c-80.16,32.19-160.33,32.19-240.49,0
		c-8.19-3.29-13.52-11.27-13.52-20.1v-7.88C211.61,657.83,300.78,657.83,389.95,620.18z"/>
	<g>
		<path class="st7" d="M153.25,190.62c35.09,298.49-12.18,309.23-24.95,0"/>
		<path class="st7" d="M359.13,190.62c-35.09,298.49,12.18,309.23,24.95,0"/>
	</g>
	<g>
		<path class="st7" d="M140.94,186.3l-19.59,5.34l-18.57,5.07c-0.42-1.51-0.61-3.04-0.61-4.53c0-7.56,5.03-14.49,12.67-16.58
			l6.51-1.77l10.81-2.94c3.6-0.99,7.32,1.14,8.31,4.74l2.13,7.79C142.94,184.66,142.2,185.95,140.94,186.3z"/>
		<path class="st7" d="M408.06,192.18c0,1.49-0.2,3.01-0.61,4.52l-18.57-5.06l-19.6-5.35c-1.25-0.34-1.99-1.63-1.64-2.89l2.13-7.79
			c0.98-3.6,4.7-5.73,8.31-4.74l10.81,2.94l6.5,1.77C403.03,177.69,408.06,184.62,408.06,192.18z"/>
	</g>
	<circle class="st2" cx="212.01" cy="512.2" r="24.17"/>
	<circle class="st2" cx="303.34" cy="512.2" r="24.17"/>
	<circle class="st2" cx="216.58" cy="575.59" r="21.76"/>
	<circle class="st2" cx="298.77" cy="575.59" r="21.76"/>
</g>
</svg>
