<?xml version="1.0" encoding="utf-8"?>
<!-- Generator: Adobe Illustrator 27.1.0, SVG Export Plug-In . SVG Version: 6.00 Build 0)  -->
<svg version="1.1" id="Capa_1" xmlns="http://www.w3.org/2000/svg" xmlns:xlink="http://www.w3.org/1999/xlink" x="0px" y="0px"
	 viewBox="0 0 510.24 680.31" style="enable-background:new 0 0 510.24 680.31;" xml:space="preserve">
<style type="text/css">
	.st0{fill:#B3B3B3;stroke:#000000;stroke-width:1.1326;stroke-miterlimit:10;}
	.st1{fill:#6A6AE2;stroke:#000000;stroke-width:1.0759;stroke-miterlimit:10;}
	.st2{fill:#8585FF;stroke:#000000;stroke-width:1.0759;stroke-miterlimit:10;}
	.st3{fill:#666666;stroke:#000000;stroke-width:1.1326;stroke-miterlimit:10;}
	.st4{fill:#666666;stroke:#000000;stroke-width:1.2087;stroke-miterlimit:10;}
	.st5{fill:#AF0000;stroke:#000000;stroke-width:1.0759;stroke-miterlimit:10;}
</style>
<g>
	<path class="st0" d="M392.12,26.41c0,9.66-13.88,17.5-31,17.5c-17.12,0-31-7.84-31-17.5s13.88-17.5,31-17.5
		C378.24,8.91,392.12,16.74,392.12,26.41z M149.12,8.91c-17.12,0-31,7.84-31,17.5s13.88,17.5,31,17.5s31-7.84,31-17.5
		S166.24,8.91,149.12,8.91z"/>
	<g>
		<path class="st1" d="M156.12,390.13L156.12,390.13c-33.69,0-61-27.31-61-61V78.41c0-33.69,27.31-61,61-61h0
			c33.69,0,61,27.31,61,61v250.72C217.12,362.82,189.81,390.13,156.12,390.13z"/>
		<path class="st1" d="M354.12,390.13L354.12,390.13c-33.69,0-61-27.31-61-61V78.41c0-33.69,27.31-61,61-61h0
			c33.69,0,61,27.31,61,61v250.72C415.12,362.82,387.81,390.13,354.12,390.13z"/>
	</g>
	<path class="st1" d="M118.11,422.91h274.01c12.7,0,22.99,10.3,22.99,22.99v116.82c0,59.75-48.44,108.19-108.19,108.19H203.3
		c-59.75,0-108.19-48.44-108.19-108.19V445.9C95.12,433.2,105.41,422.91,118.11,422.91z"/>
	<ellipse class="st2" cx="255.12" cy="344.41" rx="149.5" ry="327"/>
	<path class="st3" d="M340.13,564.56c-56.67,23.79-113.35,23.79-170.02,0c-11.22-4.71-18.99-19.54-18.99-36.49v-0.47
		c0-23.99,15.14-41.85,31.35-37.17c50.54,14.59,98.88,14.15,145.27,0.48c16.21-4.77,31.38,13.15,31.38,37.15v0
		C359.12,545.03,351.35,559.85,340.13,564.56z"/>
	<g>
		<path class="st4" d="M133.48,509.48L133.48,509.48c-3.02,0.33-5.74-1.85-6.07-4.87L113.14,374.4c-0.33-3.02,1.85-5.74,4.87-6.07h0
			c3.02-0.33,5.74,1.85,6.07,4.87l14.28,130.22C138.68,506.44,136.5,509.15,133.48,509.48z"/>
		<path class="st4" d="M120.77,344.52L120.77,344.52c-2.98-0.6-4.91-3.5-4.31-6.47l25.78-128.44c0.6-2.98,3.5-4.91,6.47-4.31h0
			c2.98,0.6,4.91,3.5,4.31,6.47l-25.78,128.44C126.65,343.19,123.75,345.12,120.77,344.52z"/>
		<path class="st4" d="M376.75,509.48L376.75,509.48c3.02,0.33,5.74-1.85,6.07-4.87L397.1,374.4c0.33-3.02-1.85-5.74-4.87-6.07h0
			c-3.02-0.33-5.74,1.85-6.07,4.87l-14.28,130.22C371.55,506.44,373.73,509.15,376.75,509.48z"/>
		<path class="st4" d="M389.46,344.52L389.46,344.52c2.98-0.6,4.91-3.5,4.31-6.47L368,209.61c-0.6-2.98-3.5-4.91-6.47-4.31l0,0
			c-2.98,0.6-4.91,3.5-4.31,6.47l25.78,128.44C383.59,343.19,386.49,345.12,389.46,344.52z"/>
	</g>
	<path class="st3" d="M347.5,201.91H162.74c-8.35,0-15.12-6.77-15.12-15.12v-7.2c0-3.14,2.55-5.68,5.68-5.68h203.63
		c3.14,0,5.68,2.55,5.68,5.68v7.2C362.62,195.14,355.85,201.91,347.5,201.91z"/>
	<path class="st2" d="M257.62,639.91h-5c-11.05,0-20-8.95-20-20l0,0h45l0,0C277.62,630.95,268.66,639.91,257.62,639.91z"/>
	<g>
		<g>
			<path class="st2" d="M377.12,619.91L377.12,619.91c-6.63,0-12-5.37-12-12v-17c0-6.63,5.37-12,12-12h0c6.63,0,12,5.37,12,12v17
				C389.12,614.53,383.75,619.91,377.12,619.91z"/>
			<ellipse class="st5" cx="377.12" cy="610.41" rx="11" ry="9.5"/>
		</g>
		<g>
			<path class="st2" d="M133.12,619.91L133.12,619.91c-6.63,0-12-5.37-12-12v-17c0-6.63,5.37-12,12-12h0c6.63,0,12,5.37,12,12v17
				C145.12,614.53,139.75,619.91,133.12,619.91z"/>
			<ellipse class="st5" cx="133.12" cy="610.41" rx="11" ry="9.5"/>
		</g>
	</g>
	<g>
		<path class="st1" d="M264.39,30.91c-2.87,90.1,32.48,129.01,95.62,130.7"/>
		<path class="st1" d="M245.85,30.91c2.87,90.1-32.48,129.01-95.62,130.7"/>
	</g>
	<circle class="st0" cx="255.12" cy="145.91" r="13"/>
	<g>
		<path class="st0" d="M419.12,192.91c0,4.97-10.52,4-23.5,4s-23.5,1.97-23.5-3c0-4.97,10.52-15,23.5-15
			S419.12,187.94,419.12,192.91z"/>
		<path class="st0" d="M138.12,192.91c0,4.97-10.52,4-23.5,4s-23.5,1.97-23.5-3c0-4.97,10.52-15,23.5-15
			S138.12,187.94,138.12,192.91z"/>
	</g>
</g>
</svg>
